<?xml version="1.0" encoding="UTF-8" standalone="no"?>
<!-- Created with Inkscape (http://www.inkscape.org/) -->

<svg
   xmlns:dc="http://purl.org/dc/elements/1.1/"
   xmlns:cc="http://creativecommons.org/ns#"
   xmlns:rdf="http://www.w3.org/1999/02/22-rdf-syntax-ns#"
   xmlns:svg="http://www.w3.org/2000/svg"
   xmlns="http://www.w3.org/2000/svg"
   xmlns:sodipodi="http://sodipodi.sourceforge.net/DTD/sodipodi-0.dtd"
   xmlns:inkscape="http://www.inkscape.org/namespaces/inkscape"
   id="svg2"
   version="1.1"
   inkscape:version="0.91 r13725"
   xml:space="preserve"
   width="637.79498"
   height="354.33124"
   viewBox="0 0 637.79498 354.33124"
   sodipodi:docname="logo.svg"><metadata
     id="metadata8"><rdf:RDF><cc:Work
         rdf:about=""><dc:format>image/svg+xml</dc:format><dc:type
           rdf:resource="http://purl.org/dc/dcmitype/StillImage" /><dc:title /></cc:Work></rdf:RDF></metadata><defs
     id="defs6"><clipPath
       clipPathUnits="userSpaceOnUse"
       id="clipPath16"><path
         d="m 0,0 510.236,0 0,283.465 L 0,283.465 0,0 Z"
         id="path18"
         inkscape:connector-curvature="0" /></clipPath><clipPath
       clipPathUnits="userSpaceOnUse"
       id="clipPath30"><path
         d="m 0,0 510.236,0 0,283.465 L 0,283.465 0,0 Z"
         id="path32"
         inkscape:connector-curvature="0" /></clipPath><clipPath
       clipPathUnits="userSpaceOnUse"
       id="clipPath50"><path
         d="m 0,0 510.236,0 0,283.465 L 0,283.465 0,0 Z"
         id="path52"
         inkscape:connector-curvature="0" /></clipPath></defs><sodipodi:namedview
     pagecolor="#ffffff"
     bordercolor="#666666"
     borderopacity="1"
     objecttolerance="10"
     gridtolerance="10"
     guidetolerance="10"
     inkscape:pageopacity="0"
     inkscape:pageshadow="2"
     inkscape:window-width="1920"
     inkscape:window-height="1173"
     id="namedview4"
     showgrid="false"
     inkscape:zoom="0.69846469"
     inkscape:cx="-139.92942"
     inkscape:cy="155.23709"
     inkscape:window-x="1366"
     inkscape:window-y="0"
     inkscape:window-maximized="1"
     inkscape:current-layer="g10" /><g
     id="g10"
     inkscape:groupmode="layer"
     inkscape:label="bigan_blanco"
     transform="matrix(1.25,0,0,-1.25,0,354.33125)"
     style="display:inline;opacity:0.559"><g
       id="g4409"
       style="fill:#ffffff"
       transform="matrix(1.2723563,0,0,1.2939567,-63.914337,-36.15961)"><g
         transform="translate(-5.7268464,11.453693)"
         style="fill:#ffffff"
         id="g12"><g
           style="fill:#ffffff"
           clip-path="url(#clipPath16)"
           id="g14"><g
             style="fill:#ffffff"
             transform="translate(128.4395,132.5703)"
             id="g20"><path
               inkscape:connector-curvature="0"
               id="path22"
               style="fill:#ffffff;fill-opacity:1;fill-rule:nonzero;stroke:none"
               d="m 0,0 c 2.772,3.926 4.966,10.162 4.966,14.896 0,14.435 -10.278,24.828 -26.907,24.828 l -42.727,0 0,-86.609 44.113,0 c 18.245,0 29.562,11.201 29.562,27.138 C 9.007,-10.972 4.388,-3.812 0,0 m -23.211,10.624 c 0,-2.425 -1.501,-4.273 -4.273,-4.273 l -7.737,0 0,8.661 7.853,0 c 2.656,0 4.157,-1.963 4.157,-4.388 m 3.464,-28.178 c 0,-2.77 -1.616,-4.965 -5.196,-4.965 l -10.278,0 0,10.046 10.393,0 c 3.465,0 5.081,-2.308 5.081,-5.081" /></g></g></g><path
         inkscape:connector-curvature="0"
         id="path24"
         style="fill:#ffffff;fill-opacity:1;fill-rule:nonzero;stroke:none"
         d="m 169.71115,137.74169 -31.641,0 0,-40.602997 31.641,0 0,40.602997 z" /><g
         transform="translate(-5.7268464,11.453693)"
         style="fill:#ffffff"
         id="g26"><g
           style="fill:#ffffff"
           clip-path="url(#clipPath30)"
           id="g28"><g
             style="fill:#ffffff"
             transform="translate(275.2109,129.9141)"
             id="g34"><path
               inkscape:connector-curvature="0"
               id="path36"
               style="fill:#ffffff;fill-opacity:1;fill-rule:nonzero;stroke:none"
               d="m 0,0 c 0,1.731 -0.231,3.002 -0.346,4.156 l -47.347,0 0,-16.859 16.514,0 c -3.118,-3.695 -7.853,-6.004 -13.973,-6.004 -10.162,0 -16.513,7.852 -16.513,17.783 0,9.931 6.466,16.975 15.82,16.975 5.081,0 9.354,-2.425 10.624,-4.619 l 33.835,0 c -5.427,20.786 -23.557,32.565 -45.267,32.565 -27.6,0 -46.769,-18.938 -46.769,-44.69 0,-25.982 19.4,-45.153 47.346,-45.153 C -20.324,-45.846 0,-26.561 0,0" /></g></g></g><g
         style="fill:#ffffff"
         transform="translate(321.44995,97.139193)"
         id="g38"><path
           inkscape:connector-curvature="0"
           id="path40"
           style="fill:#ffffff;fill-opacity:1;fill-rule:nonzero;stroke:none"
           d="m 0,0 32.103,0 -19.054,86.609 -47.693,0 L -53.697,0 l 32.103,0 2.194,15.243 17.206,0 L 0,0 Z" /></g><g
         style="fill:#ffffff"
         transform="translate(387.04075,97.139193)"
         id="g42"><path
           inkscape:connector-curvature="0"
           id="path44"
           style="fill:#ffffff;fill-opacity:1;fill-rule:nonzero;stroke:none"
           d="m 0,0 0,36.953 3.926,0 L 20.323,0 l 33.373,0 0,86.609 -28.869,0 0,-36.953 -3.926,0 -17.552,36.953 -32.219,0 L -28.87,0 0,0 Z" /></g><g
         transform="translate(-5.7268464,11.453693)"
         style="fill:#ffffff"
         id="g46"><g
           style="fill:#ffffff"
           clip-path="url(#clipPath50)"
           id="g48"><g
             style="fill:#ffffff"
             transform="translate(159.5386,137.3096)"
             id="g54"><path
               inkscape:connector-curvature="0"
               id="path56"
               style="fill:#ffffff;fill-opacity:1;fill-rule:nonzero;stroke:none"
               d="m 0,0 c 10.107,0 18.301,8.193 18.301,18.301 0,10.107 -8.194,18.3 -18.301,18.3 -10.107,0 -18.301,-8.193 -18.301,-18.3 C -18.301,8.193 -10.107,0 0,0" /></g><g
             style="fill:#ffffff"
             transform="translate(315.1953,184.0542)"
             id="g58"><path
               inkscape:connector-curvature="0"
               id="path60"
               style="fill:#ffffff;fill-opacity:1;fill-rule:nonzero;stroke:none"
               d="m 0,0 c 10.107,0 18.301,8.193 18.301,18.301 0,10.107 -8.194,18.3 -18.301,18.3 -10.107,0 -18.301,-8.193 -18.301,-18.3 C -18.301,8.193 -10.107,0 0,0" /></g></g></g><g
         id="flowRoot4135"
         style="font-style:normal;font-weight:normal;font-size:32px;line-height:125%;font-family:sans-serif;letter-spacing:0px;word-spacing:0px;display:inline;fill:#ffffff;fill-opacity:1;stroke:none;stroke-width:1px;stroke-linecap:butt;stroke-linejoin:miter;stroke-opacity:1;image-rendering:optimizeQuality"
         transform="matrix(1,0,0,-1.193527,239.11342,377.42147)"><path
           id="path4383"
           style="font-style:normal;font-variant:normal;font-weight:bold;font-stretch:normal;font-family:'IBM Plex Sans';-inkscape-font-specification:'IBM Plex Sans Bold';fill:#ffffff"
           d="m 3.90625e-4,271.66737 0,-3.872 2.879999975,0 0,-14.592 -2.879999975,0 0,-3.872 10.624000375,0 0,3.872 -2.8800004,0 0,14.592 2.8800004,0 0,3.872 -10.624000375,0 z"
           inkscape:connector-curvature="0" /><path
           id="path4385"
           style="font-style:normal;font-variant:normal;font-weight:bold;font-stretch:normal;font-family:'IBM Plex Sans';-inkscape-font-specification:'IBM Plex Sans Bold';fill:#ffffff"
           d="m 14.420891,271.66737 0,-16.8 4.736,0 0,2.848 0.192,0 q 0.448,-1.312 1.568,-2.272 1.12,-0.96 3.104,-0.96 2.592,0 3.904,1.728 1.344,1.728 1.344,4.928 l 0,10.528 -4.736,0 0,-10.144 q 0,-1.632 -0.512,-2.4 -0.512,-0.8 -1.824,-0.8 -0.576,0 -1.12,0.16 -0.544,0.128 -0.992,0.448 -0.416,0.32 -0.672,0.8 -0.256,0.448 -0.256,1.056 l 0,10.88 -4.736,0 z"
           inkscape:connector-curvature="0" /><path
           id="path4387"
           style="font-style:normal;font-variant:normal;font-weight:bold;font-stretch:normal;font-family:'IBM Plex Sans';-inkscape-font-specification:'IBM Plex Sans Bold';fill:#ffffff"
           d="m 36.817391,271.66737 -5.504,-16.8 4.672,0 2.08,6.784 1.568,6.08 0.256,0 1.568,-6.08 2.016,-6.784 4.48,0 -5.504,16.8 -5.632,0 z"
           inkscape:connector-curvature="0" /><path
           id="path4389"
           style="font-style:normal;font-variant:normal;font-weight:bold;font-stretch:normal;font-family:'IBM Plex Sans';-inkscape-font-specification:'IBM Plex Sans Bold';fill:#ffffff"
           d="m 57.178891,272.05137 q -1.92,0 -3.424,-0.608 -1.504,-0.64 -2.56,-1.76 -1.024,-1.152 -1.568,-2.784 -0.512,-1.632 -0.512,-3.648 0,-1.984 0.512,-3.584 0.512,-1.632 1.504,-2.784 1.024,-1.152 2.496,-1.76 1.472,-0.64 3.36,-0.64 2.08,0 3.552,0.704 1.504,0.704 2.432,1.888 0.96,1.184 1.376,2.752 0.448,1.536 0.448,3.232 l 0,1.408 -10.784,0 0,0.256 q 0,1.664 0.896,2.656 0.896,0.96 2.816,0.96 1.472,0 2.4,-0.576 0.928,-0.608 1.728,-1.44 l 2.368,2.944 q -1.12,1.312 -2.944,2.048 -1.792,0.736 -4.096,0.736 z m -0.096,-14.08 q -1.44,0 -2.272,0.96 -0.8,0.928 -0.8,2.496 l 0,0.256 5.888,0 0,-0.288 q 0,-1.536 -0.704,-2.464 -0.672,-0.96 -2.112,-0.96 z"
           inkscape:connector-curvature="0" /><path
           id="path4391"
           style="font-style:normal;font-variant:normal;font-weight:bold;font-stretch:normal;font-family:'IBM Plex Sans';-inkscape-font-specification:'IBM Plex Sans Bold';fill:#ffffff"
           d="m 73.866891,272.05137 q -2.432,0 -4.096,-0.768 -1.664,-0.8 -2.976,-2.24 l 2.784,-2.816 q 0.896,0.992 1.984,1.568 1.088,0.576 2.464,0.576 1.408,0 1.952,-0.416 0.544,-0.448 0.544,-1.184 0,-1.184 -1.696,-1.408 l -1.824,-0.224 q -5.664,-0.704 -5.664,-5.184 0,-1.216 0.448,-2.208 0.48,-1.024 1.312,-1.728 0.864,-0.736 2.048,-1.12 1.216,-0.416 2.72,-0.416 1.312,0 2.304,0.192 1.024,0.16 1.792,0.512 0.8,0.32 1.44,0.832 0.672,0.48 1.312,1.088 l -2.72,2.784 q -0.8,-0.8 -1.824,-1.248 -0.992,-0.48 -2.048,-0.48 -1.216,0 -1.728,0.384 -0.512,0.384 -0.512,1.024 0,0.672 0.352,1.056 0.384,0.352 1.408,0.512 l 1.888,0.256 q 5.536,0.736 5.536,5.056 0,1.216 -0.512,2.24 -0.512,1.024 -1.472,1.792 -0.928,0.736 -2.272,1.152 -1.312,0.416 -2.944,0.416 z"
           inkscape:connector-curvature="0" /><path
           id="path4393"
           style="font-style:normal;font-variant:normal;font-weight:bold;font-stretch:normal;font-family:'IBM Plex Sans';-inkscape-font-specification:'IBM Plex Sans Bold';fill:#ffffff"
           d="m 89.933891,271.66737 q -2.464,0 -3.744,-1.248 -1.248,-1.248 -1.248,-3.648 l 0,-8.224 -2.368,0 0,-3.68 1.184,0 q 0.96,0 1.312,-0.448 0.352,-0.48 0.352,-1.344 l 0,-2.752 4.256,0 0,4.544 3.328,0 0,3.68 -3.328,0 0,9.44 3.072,0 0,3.68 -2.816,0 z"
           inkscape:connector-curvature="0" /><path
           id="path4395"
           style="font-style:normal;font-variant:normal;font-weight:bold;font-stretch:normal;font-family:'IBM Plex Sans';-inkscape-font-specification:'IBM Plex Sans Bold';fill:#ffffff"
           d="m 98.663891,253.07537 q -1.44,0 -2.112,-0.64 -0.64,-0.672 -0.64,-1.696 l 0,-0.704 q 0,-1.024 0.64,-1.664 0.672,-0.672 2.112,-0.672 1.439999,0 2.079999,0.672 0.672,0.64 0.672,1.664 l 0,0.704 q 0,1.024 -0.672,1.696 -0.64,0.64 -2.079999,0.64 z m -2.368,1.792 4.735999,0 0,16.8 -4.735999,0 0,-16.8 z"
           inkscape:connector-curvature="0" /><path
           id="path4397"
           style="font-style:normal;font-variant:normal;font-weight:bold;font-stretch:normal;font-family:'IBM Plex Sans';-inkscape-font-specification:'IBM Plex Sans Bold';fill:#ffffff"
           d="m 120.97289,272.88337 q 0,1.344 -0.48,2.368 -0.448,1.024 -1.504,1.728 -1.056,0.736 -2.816,1.088 -1.728,0.384 -4.288,0.384 -2.176,0 -3.712,-0.288 -1.504,-0.256 -2.464,-0.768 -0.928,-0.48 -1.376,-1.216 -0.416,-0.704 -0.416,-1.632 0,-1.408 0.832,-2.208 0.832,-0.8 2.304,-0.992 l 0,-0.352 q -1.216,-0.224 -1.824,-1.024 -0.608,-0.832 -0.608,-1.92 0,-0.672 0.256,-1.152 0.288,-0.512 0.704,-0.864 0.448,-0.384 1.024,-0.608 0.576,-0.224 1.152,-0.352 l 0,-0.128 q -1.536,-0.704 -2.272,-1.92 -0.736,-1.248 -0.736,-2.88 0,-2.56 1.76,-4.096 1.792,-1.568 5.44,-1.568 1.664,0 2.848,0.32 l 0,-0.64 q 0,-1.344 0.64,-1.92 0.672,-0.608 1.888,-0.608 l 2.656,0 0,3.52 -3.712,0 0,0.192 q 1.472,0.704 2.176,1.952 0.704,1.216 0.704,2.848 0,2.528 -1.792,4.064 -1.76,1.504 -5.408,1.504 -1.632,0 -2.976,-0.352 -0.736,0.48 -0.736,1.344 0,0.608 0.448,0.96 0.48,0.32 1.568,0.32 l 4.864,0 q 3.072,0 4.448,1.28 1.408,1.28 1.408,3.616 z m -4.448,0.64 q 0,-0.736 -0.576,-1.12 -0.576,-0.384 -2.016,-0.384 l -5.76,0 q -0.32,0.32 -0.48,0.704 -0.128,0.416 -0.128,0.8 0,0.928 0.8,1.344 0.8,0.448 2.72,0.448 l 1.92,0 q 1.92,0 2.72,-0.448 0.8,-0.416 0.8,-1.344 z m -4.576,-10.912 q 1.408,0 2.08,-0.576 0.704,-0.608 0.704,-1.728 l 0,-0.384 q 0,-1.12 -0.704,-1.696 -0.672,-0.608 -2.08,-0.608 -1.408,0 -2.112,0.608 -0.672,0.576 -0.672,1.696 l 0,0.384 q 0,1.12 0.672,1.728 0.704,0.576 2.112,0.576 z"
           inkscape:connector-curvature="0" /><path
           id="path4399"
           style="font-style:normal;font-variant:normal;font-weight:bold;font-stretch:normal;font-family:'IBM Plex Sans';-inkscape-font-specification:'IBM Plex Sans Bold';fill:#ffffff"
           d="m 135.46189,271.66737 q -1.28,0 -2.144,-0.8 -0.832,-0.8 -1.056,-2.144 l -0.192,0 q -0.384,1.632 -1.696,2.496 -1.312,0.832 -3.232,0.832 -2.528,0 -3.872,-1.344 -1.344,-1.344 -1.344,-3.552 0,-2.656 1.92,-3.936 1.952,-1.312 5.28,-1.312 l 2.656,0 0,-1.056 q 0,-1.216 -0.64,-1.92 -0.64,-0.736 -2.144,-0.736 -1.408,0 -2.24,0.608 -0.832,0.608 -1.376,1.376 l -2.816,-2.496 q 1.024,-1.504 2.56,-2.336 1.568,-0.864 4.224,-0.864 3.584,0 5.376,1.568 1.792,1.568 1.792,4.576 l 0,7.36 1.568,0 0,3.68 -2.624,0 z m -6.56,-2.912 q 1.184,0 2.016,-0.512 0.864,-0.512 0.864,-1.664 l 0,-1.984 -2.304,0 q -2.784,0 -2.784,1.888 l 0,0.48 q 0,0.928 0.576,1.376 0.576,0.416 1.632,0.416 z"
           inkscape:connector-curvature="0" /><path
           id="path4401"
           style="font-style:normal;font-variant:normal;font-weight:bold;font-stretch:normal;font-family:'IBM Plex Sans';-inkscape-font-specification:'IBM Plex Sans Bold';fill:#ffffff"
           d="m 148.01739,272.05137 q -1.888,0 -3.36,-0.608 -1.472,-0.64 -2.464,-1.76 -0.992,-1.152 -1.504,-2.784 -0.512,-1.632 -0.512,-3.648 0,-2.016 0.512,-3.616 0.512,-1.632 1.504,-2.784 0.992,-1.152 2.464,-1.76 1.472,-0.608 3.36,-0.608 2.56,0 4.256,1.152 1.728,1.152 2.464,3.232 l -3.84,1.664 q -0.224,-0.96 -0.928,-1.632 -0.704,-0.672 -1.952,-0.672 -1.44,0 -2.176,0.96 -0.736,0.928 -0.736,2.528 l 0,3.136 q 0,1.6 0.736,2.56 0.736,0.928 2.176,0.928 1.408,0 2.08,-0.736 0.704,-0.768 1.056,-1.792 l 3.68,1.6 q -0.832,2.4 -2.592,3.52 -1.728,1.12 -4.224,1.12 z"
           inkscape:connector-curvature="0" /><path
           id="path4403"
           style="font-style:normal;font-variant:normal;font-weight:bold;font-stretch:normal;font-family:'IBM Plex Sans';-inkscape-font-specification:'IBM Plex Sans Bold';fill:#ffffff"
           d="m 160.16389,253.07537 q -1.44,0 -2.112,-0.64 -0.64,-0.672 -0.64,-1.696 l 0,-0.704 q 0,-1.024 0.64,-1.664 0.672,-0.672 2.112,-0.672 1.44,0 2.08,0.672 0.672,0.64 0.672,1.664 l 0,0.704 q 0,1.024 -0.672,1.696 -0.64,0.64 -2.08,0.64 z m -2.368,1.792 4.736,0 0,16.8 -4.736,0 0,-16.8 z"
           inkscape:connector-curvature="0" /><path
           id="path4405"
           style="font-style:normal;font-variant:normal;font-weight:bold;font-stretch:normal;font-family:'IBM Plex Sans';-inkscape-font-specification:'IBM Plex Sans Bold';fill:#ffffff"
           d="m 173.73689,272.05137 q -1.856,0 -3.328,-0.608 -1.44,-0.608 -2.464,-1.76 -0.992,-1.152 -1.536,-2.784 -0.544,-1.632 -0.544,-3.648 0,-2.016 0.544,-3.648 0.544,-1.632 1.536,-2.752 1.024,-1.152 2.464,-1.76 1.472,-0.608 3.328,-0.608 1.856,0 3.296,0.608 1.472,0.608 2.464,1.76 1.024,1.12 1.568,2.752 0.544,1.632 0.544,3.648 0,2.016 -0.544,3.648 -0.544,1.632 -1.568,2.784 -0.992,1.152 -2.464,1.76 -1.44,0.608 -3.296,0.608 z m 0,-3.744 q 1.408,0 2.176,-0.864 0.768,-0.864 0.768,-2.464 l 0,-3.424 q 0,-1.6 -0.768,-2.464 -0.768,-0.864 -2.176,-0.864 -1.408,0 -2.176,0.864 -0.768,0.864 -0.768,2.464 l 0,3.424 q 0,1.6 0.768,2.464 0.768,0.864 2.176,0.864 z m 0.512,-15.168 -2.816,-1.376 3.168,-6.208 3.936,1.952 -4.288,5.632 z"
           inkscape:connector-curvature="0" /><path
           id="path4407"
           style="font-style:normal;font-variant:normal;font-weight:bold;font-stretch:normal;font-family:'IBM Plex Sans';-inkscape-font-specification:'IBM Plex Sans Bold';fill:#ffffff"
           d="m 184.98339,271.66737 0,-16.8 4.736,0 0,2.848 0.192,0 q 0.448,-1.312 1.568,-2.272 1.12,-0.96 3.104,-0.96 2.592,0 3.904,1.728 1.344,1.728 1.344,4.928 l 0,10.528 -4.736,0 0,-10.144 q 0,-1.632 -0.512,-2.4 -0.512,-0.8 -1.824,-0.8 -0.576,0 -1.12,0.16 -0.544,0.128 -0.992,0.448 -0.416,0.32 -0.672,0.8 -0.256,0.448 -0.256,1.056 l 0,10.88 -4.736,0 z"
           inkscape:connector-curvature="0" /></g></g></g></svg>